<?xml version="1.0" encoding="utf-8"?>
<!-- Generator: Adobe Illustrator 16.0.0, SVG Export Plug-In . SVG Version: 6.00 Build 0)  -->
<!DOCTYPE svg PUBLIC "-//W3C//DTD SVG 1.1//EN" "http://www.w3.org/Graphics/SVG/1.1/DTD/svg11.dtd">
<svg version="1.1" id="Capa_1" xmlns="http://www.w3.org/2000/svg" xmlns:xlink="http://www.w3.org/1999/xlink" x="0px" y="0px"
	 width="1200px" height="1200px" viewBox="0 0 1200 1200" enable-background="new 0 0 1200 1200" xml:space="preserve">
<g>
	<g>
		<path fill="#EA275B" d="M218.4,646.264c0,0,1.466-54.423-16.812-60.553c-18.271-6.135-35.814,55.187-35.814,55.187
			s-25.582-42.922-42.391-41.391c-16.813,1.533-7.311,65.153-7.311,65.153s-43.859-21.461-52.626-1.531
			c-8.773,19.929,38.735,42.157,38.735,42.157s-48.238,16.864-46.777,42.158c1.464,25.294,61.398,4.599,61.398,4.599
			s-21.926,37.559,1.461,49.822c23.389,12.263,49.703-37.557,49.703-37.557s19.006,41.389,43.856,41.389
			s13.156-58.253,13.156-58.253s37.276,9.966,53.355-6.133c16.079-16.096-32.158-47.522-32.158-47.522s38.738-38.324,25.583-56.722
			C258.601,618.671,218.4,646.264,218.4,646.264z"/>
		<path fill="#FF4480" d="M156.979,688.388c0,0-25.314-40.423-54.508-33.914c-29.197,6.51,17.123,49.148,50.146,48.888
			C185.646,703.101,156.979,688.388,156.979,688.388z"/>
		<path fill="#FF4480" d="M184.657,711.592c0,0,23.385,41.685,52.85,36.695c29.463-4.989-14.79-49.974-47.79-51.423
			C156.716,695.413,184.657,711.592,184.657,711.592z"/>
		<path fill="#FF4480" d="M157.93,714.071c0,0-41.196,21.734-38.382,52.894s48.521-12.194,52.068-46.632
			C175.161,685.897,157.93,714.071,157.93,714.071z"/>
		<path fill="#FF4480" d="M182.407,689.928c0,0,40.123-23.841,35.847-54.815c-4.28-30.975-47.888,14.691-49.808,49.271
			C166.524,718.961,182.407,689.928,182.407,689.928z"/>
		<path fill="#FF4480" d="M153.845,702.726c0,0-45.799-5.679-59.828,21.946c-14.025,27.627,46.896,17.871,67.954-8.81
			C183.028,689.177,153.845,702.726,153.845,702.726z"/>
		<path fill="#FF4480" d="M190.89,701.047c0,0,46.01,3.306,58.725-25.016c12.711-28.316-47.68-15.419-67.455,12.32
			C162.38,716.091,190.89,701.047,190.89,701.047z"/>
		<path fill="#FF4480" d="M171.497,716.804c0,0-8.408,47.555,16.957,64.047c25.366,16.493,20.084-47.897-3.924-71.686
			C160.522,685.378,171.497,716.804,171.497,716.804z"/>
		<path fill="#FF4480" d="M171.283,682.868c0,0,6.162-47.928-19.946-63.088c-26.113-15.161-17.806,48.88,7.289,71.395
			C183.729,713.692,171.283,682.868,171.283,682.868z"/>
		<path fill="#FF80BD" d="M184.726,696.788c0,0,4.427-18.182-9.592-21.662c-14.018-3.483-11.438,19.344-11.438,19.344
			s-11.064-4.258-13.647,4.641c-2.582,8.896,8.486,23.597,19.184,16.633c0,0,9.59,12.77,19.183,7.353
			C198.007,717.68,197.267,699.885,184.726,696.788z"/>
		<path fill="#FF5091" d="M169.946,709.746c4.869,1.88,12.747-9.356,6.375-16.709C169.946,685.689,157.841,705.067,169.946,709.746z
			"/>
	</g>
	<g>
		<path fill="#EA275B" d="M1047.923,646.264c0,0,1.466-54.423-16.809-60.553c-18.274-6.135-35.815,55.187-35.815,55.187
			s-25.582-42.922-42.394-41.391c-16.813,1.533-7.309,65.153-7.309,65.153s-43.857-21.461-52.627-1.531
			c-8.771,19.929,38.736,42.157,38.736,42.157s-48.237,16.864-46.777,42.158c1.463,25.294,61.396,4.599,61.396,4.599
			s-21.925,37.559,1.462,49.822c23.392,12.263,49.703-37.557,49.703-37.557s19.007,41.389,43.856,41.389
			c24.852,0,13.156-58.253,13.156-58.253s37.277,9.966,53.355-6.133c16.08-16.096-32.158-47.522-32.158-47.522
			s38.738-38.324,25.583-56.722C1088.122,618.671,1047.923,646.264,1047.923,646.264z"/>
		<path fill="#FF4480" d="M986.503,688.388c0,0-25.316-40.423-54.508-33.914c-29.197,6.51,17.122,49.148,50.148,48.888
			C1015.171,703.101,986.503,688.388,986.503,688.388z"/>
		<path fill="#FF4480" d="M1014.181,711.592c0,0,23.385,41.685,52.849,36.695s-14.79-49.974-47.788-51.423
			C986.239,695.413,1014.181,711.592,1014.181,711.592z"/>
		<path fill="#FF4480" d="M987.454,714.071c0,0-41.196,21.734-38.383,52.894c2.814,31.159,48.521-12.194,52.067-46.632
			C1004.686,685.897,987.454,714.071,987.454,714.071z"/>
		<path fill="#FF4480" d="M1011.93,689.928c0,0,40.124-23.841,35.847-54.815c-4.28-30.975-47.885,14.691-49.807,49.271
			C996.048,718.961,1011.93,689.928,1011.93,689.928z"/>
		<path fill="#FF4480" d="M983.367,702.726c0,0-45.798-5.679-59.827,21.946c-14.026,27.627,46.896,17.871,67.953-8.81
			C1012.554,689.177,983.367,702.726,983.367,702.726z"/>
		<path fill="#FF4480" d="M1020.413,701.047c0,0,46.01,3.306,58.725-25.016c12.71-28.316-47.68-15.419-67.456,12.32
			S1020.413,701.047,1020.413,701.047z"/>
		<path fill="#FF4480" d="M1001.021,716.804c0,0-8.409,47.555,16.957,64.047c25.365,16.493,20.084-47.897-3.924-71.686
			C990.045,685.378,1001.021,716.804,1001.021,716.804z"/>
		<path fill="#FF4480" d="M1000.808,682.868c0,0,6.16-47.928-19.947-63.088c-26.113-15.161-17.805,48.88,7.29,71.395
			C1013.251,713.692,1000.808,682.868,1000.808,682.868z"/>
		<path fill="#FF80BD" d="M1014.248,696.788c0,0,4.429-18.182-9.593-21.662c-14.017-3.483-11.438,19.344-11.438,19.344
			s-11.064-4.258-13.648,4.641c-2.581,8.896,8.488,23.597,19.186,16.633c0,0,9.592,12.77,19.184,7.353
			C1027.529,717.68,1026.789,699.885,1014.248,696.788z"/>
		<path fill="#FF5091" d="M999.47,709.746c4.868,1.88,12.746-9.356,6.374-16.709C999.47,685.689,987.366,705.067,999.47,709.746z"/>
	</g>
	<g>
		<path fill="#4EA579" d="M1020.124,642.836c-9.376-11.522-19.901-23.633-32.607-30.464c36.619,2.637,76.08,3.603,103.633-25.669
			c2.425-2.577-1.576-6.304-3.994-3.739c-29.044,30.858-72.96,25.875-110.717,23.005c23.895-10.287,46.541-23.623,67.427-39.861
			c2.755-2.145-0.183-6.842-2.96-4.68c-33.978,26.42-72.504,45.116-113.688,55.208c-3.352,0.821-1.625,6.14,1.709,5.32
			c10.549-2.583,20.929-5.737,31.111-9.436c0.393,0.206,0.861,0.311,1.425,0.238c23.58-2.977,40.266,16.054,54.198,33.181
			C1017.869,648.652,1022.364,645.587,1020.124,642.836z"/>
		<path fill="#4EA579" d="M952.845,611.853c11.367-16.002,38.379-58.215,21.805-77.09c-14.158-16.124-25.458,31.033-26.414,78.928
			C949.62,612.759,951.202,612.149,952.845,611.853z"/>
		<path fill="#4EA579" d="M992.883,594.495c6.741-9.488,22.757-34.52,12.927-45.711c-8.392-9.559-15.092,18.401-15.661,46.799
			C990.97,595.031,991.907,594.67,992.883,594.495z"/>
		<path fill="#4EA579" d="M1017.943,584.399c9.55,6.303,34.6,21.084,44.466,9.932c8.43-9.524-18.676-14.337-45.715-12.704
			C1017.282,582.442,1017.699,583.396,1017.943,584.399z"/>
		<path fill="#4EA579" d="M950.513,613.099c-1.247,11.758-3.02,41.844,10.849,46.3c11.849,3.806,4.171-23.877-9.011-48.688
			C951.905,611.622,951.272,612.43,950.513,613.099z"/>
		<path fill="#4EA579" d="M981.538,614.481c-4.732,19.328-14.463,69.129,7.696,80.005c18.931,9.289,12.337-38.841-4.094-83.537
			C984.194,612.362,982.951,613.554,981.538,614.481z"/>
		<path fill="#4EA579" d="M1062.893,606.959c9.692,11.196,35.692,38.418,51.493,28.242c13.498-8.692-18.298-24.379-52.125-32.104
			C1062.719,604.312,1062.921,605.636,1062.893,606.959z"/>
		<path fill="#4EA579" d="M1084.86,593.697c15.086,8.331,54.096,27.296,63.969,6.815c8.43-17.494-30.16-19.604-66.574-11.111
			C1083.322,590.615,1084.202,592.095,1084.86,593.697z"/>
		<path fill="#4EA579" d="M1088.483,590.657c12.643-11.993,43.04-43.889,28.094-60.648c-12.766-14.318-27.924,22.961-32.839,61.736
			C1085.195,591.109,1086.82,590.754,1088.483,590.657z"/>
		<path fill="#4EA579" d="M1029.556,575.535c16.976-1.652,59.534-8.082,57.15-30.894c-2.039-19.484-35.477,0.831-61.572,28.785
			C1026.664,573.831,1028.168,574.569,1029.556,575.535z"/>
		<path fill="#4EA579" d="M1031.006,570.915c4.357-17.286,13.232-61.408-8.01-66.902c-18.149-4.692-11.454,35.222,4.603,70.527
			C1028.488,573.176,1029.665,571.946,1031.006,570.915z"/>
		<path fill="#4EA579" d="M1016.901,645.102c10.639,11.852,38.991,40.42,54.484,27.269c13.239-11.232-20.291-26.07-55.377-31.619
			C1016.554,642.096,1016.849,643.587,1016.901,645.102z"/>
		<path fill="#4EA579" d="M1005.563,630.306c12.541,5.681,44.517,18.222,48.154,0.266c3.11-15.337-25.588-13.822-50.826-3.637
			C1003.892,627.86,1004.798,629.022,1005.563,630.306z"/>
		<path fill="#4EA579" d="M1012.046,641.642c-0.602,19.946,0.248,70.775,24.136,76.324c20.407,4.739,3.972-40.728-21.356-80.594
			C1014.197,638.967,1013.229,640.413,1012.046,641.642z"/>
	</g>
	<g>
		<path fill="#4EA579" d="M179.876,642.836c9.376-11.522,19.902-23.633,32.607-30.464c-36.619,2.637-76.08,3.603-103.633-25.669
			c-2.425-2.577,1.578-6.304,3.994-3.739c29.047,30.858,72.961,25.875,110.717,23.005c-23.893-10.287-46.541-23.623-67.426-39.861
			c-2.756-2.145,0.182-6.842,2.959-4.68c33.978,26.42,72.504,45.116,113.689,55.208c3.35,0.821,1.623,6.14-1.711,5.32
			c-10.549-2.583-20.929-5.737-31.11-9.436c-0.393,0.206-0.861,0.311-1.423,0.238c-23.582-2.977-40.266,16.054-54.201,33.181
			C182.134,648.652,177.636,645.587,179.876,642.836z"/>
		<path fill="#4EA579" d="M247.155,611.853c-11.367-16.002-38.379-58.215-21.804-77.09c14.157-16.124,25.457,31.033,26.413,78.928
			C250.38,612.759,248.8,612.149,247.155,611.853z"/>
		<path fill="#4EA579" d="M207.117,594.495c-6.741-9.488-22.757-34.52-12.927-45.711c8.392-9.559,15.093,18.401,15.661,46.799
			C209.03,595.031,208.093,594.67,207.117,594.495z"/>
		<path fill="#4EA579" d="M182.057,584.399c-9.55,6.303-34.6,21.084-44.466,9.932c-8.43-9.524,18.678-14.337,45.718-12.704
			C182.719,582.442,182.303,583.396,182.057,584.399z"/>
		<path fill="#4EA579" d="M249.487,613.099c1.249,11.758,3.021,41.844-10.848,46.3c-11.85,3.806-4.171-23.877,9.01-48.688
			C248.096,611.622,248.729,612.43,249.487,613.099z"/>
		<path fill="#4EA579" d="M218.462,614.481c4.732,19.328,14.463,69.129-7.696,80.005c-18.93,9.289-12.337-38.841,4.095-83.537
			C215.806,612.362,217.049,613.554,218.462,614.481z"/>
		<path fill="#4EA579" d="M137.107,606.959c-9.692,11.196-35.692,38.418-51.493,28.242c-13.498-8.692,18.3-24.379,52.125-32.104
			C137.282,604.312,137.08,605.636,137.107,606.959z"/>
		<path fill="#4EA579" d="M115.14,593.697c-15.084,8.331-54.096,27.296-63.969,6.815c-8.43-17.494,30.16-19.604,66.576-11.111
			C116.681,590.615,115.798,592.095,115.14,593.697z"/>
		<path fill="#4EA579" d="M111.519,590.657c-12.645-11.993-43.042-43.889-28.096-60.648c12.766-14.318,27.924,22.961,32.84,61.736
			C114.805,591.109,113.18,590.754,111.519,590.657z"/>
		<path fill="#4EA579" d="M170.445,575.535c-16.977-1.652-59.535-8.082-57.151-30.894c2.039-19.484,35.477,0.831,61.572,28.785
			C173.337,573.831,171.833,574.569,170.445,575.535z"/>
		<path fill="#4EA579" d="M168.994,570.915c-4.356-17.286-13.232-61.408,8.013-66.902c18.146-4.692,11.452,35.222-4.605,70.527
			C171.513,573.176,170.335,571.946,168.994,570.915z"/>
		<path fill="#4EA579" d="M183.099,645.102c-10.639,11.852-38.988,40.42-54.484,27.269c-13.238-11.232,20.291-26.07,55.377-31.619
			C183.446,642.096,183.153,643.587,183.099,645.102z"/>
		<path fill="#4EA579" d="M194.438,630.306c-12.543,5.681-44.519,18.222-48.156,0.266c-3.107-15.337,25.588-13.822,50.827-3.637
			C196.108,627.86,195.204,629.022,194.438,630.306z"/>
		<path fill="#4EA579" d="M187.954,641.642c0.602,19.946-0.246,70.775-24.136,76.324c-20.404,4.739-3.972-40.728,21.356-80.594
			C185.803,638.967,186.771,640.413,187.954,641.642z"/>
	</g>
	<g>
		<path fill="#4EA579" d="M530.501,563.263c12.524-7.548,26.321-15.239,40.479-17.19c-35.332-10.433-72.806-23.438-89.368-60.721
			c-1.456-3.282,3.509-5.382,4.96-2.113c17.461,39.303,60.414,50.098,96.894,60.708c-19.201-18.111-36.257-38.659-50.719-61.316
			c-1.907-2.991,2.362-6.379,4.289-3.364c23.524,36.865,53.815,68.056,89.364,92.085c2.893,1.954-0.438,6.354-3.316,4.406
			c-9.105-6.151-17.871-12.782-26.273-19.854c-0.435,0.055-0.91-0.014-1.414-0.28c-21.258-11.118-43.07,0.921-61.687,12.136
			C530.761,569.536,527.511,565.064,530.501,563.263z"/>
		<path fill="#4EA579" d="M603.8,557.809c-5.575-19.08-17.479-68.361,4.183-80.291c18.503-10.19,14.026,38.203-0.433,83.647
			C606.544,559.799,605.25,558.668,603.8,557.809z"/>
		<path fill="#4EA579" d="M571.658,527.342c-3.306-11.313-10.362-40.533,2.481-47.607c10.971-6.044,8.315,22.652-0.256,49.597
			C573.287,528.521,572.52,527.851,571.658,527.342z"/>
		<path fill="#4EA579" d="M551.294,508.998c-11.016,2.566-39.345,7.653-45.063-6.328c-4.884-11.94,22.188-6.915,47.13,4.158
			C552.546,507.387,551.846,508.14,551.294,508.998z"/>
		<path fill="#4EA579" d="M605.592,559.803c-2.591,11.514-10.57,40.472-25.063,39.78c-12.376-0.595,3.731-23.958,24.102-42.676
			C604.759,557.922,605.093,558.906,605.592,559.803z"/>
		<path fill="#4EA579" d="M575.931,550.167c-1.74,19.872-8.545,70.204-32.9,72.632c-20.806,2.072,0.838-40.93,30.643-77.231
			C574.11,547.233,574.899,548.794,575.931,550.167z"/>
		<path fill="#4EA579" d="M501.729,514.394c-12.719,7.125-45.932,23.593-57.55,8.438c-9.928-12.948,25.048-16.508,59.382-11.854
			C502.739,511.96,502.128,513.136,501.729,514.394z"/>
		<path fill="#4EA579" d="M485.294,494.157c-16.877,2.524-59.701,6.629-62.429-16.141c-2.331-19.447,34.687-7.825,66.259,13.015
			C487.729,491.796,486.427,492.88,485.294,494.157z"/>
		<path fill="#4EA579" d="M482.856,490.016c-8.061-15.754-26.463-56.512-7.014-67.024c16.616-8.981,18.938,31.471,11.131,69.723
			C485.808,491.601,484.39,490.695,482.856,490.016z"/>
		<path fill="#4EA579" d="M543.202,496.554c-15.458-7.543-53.479-28.605-43.917-49.247c8.167-17.632,33.143,13.292,48.755,48.82
			C546.47,495.968,544.815,496.134,543.202,496.554z"/>
		<path fill="#4EA579" d="M543.313,491.692c1.443-17.816,7.229-62.498,29-60.18c18.598,1.979-0.507,37.207-26.95,64.796
			C544.96,494.708,544.247,493.134,543.313,491.692z"/>
		<path fill="#4EA579" d="M532.81,566.532c-13.818,7.41-49.68,24.316-60.057,6.468c-8.865-15.247,27.471-17.398,62.293-10.25
			C534.102,563.823,533.347,565.125,532.81,566.532z"/>
		<path fill="#4EA579" d="M548.235,556.596c-13.635,0.927-47.769,1.461-45.438-16.73c1.99-15.54,28.531-3.994,49.031,14.496
			C550.59,554.882,549.364,555.657,548.235,556.596z"/>
		<path fill="#4EA579" d="M538.492,564.986c-5.829,18.997-22.929,66.567-47.204,63.369c-20.737-2.732,9.32-39.755,45.955-68.371
			C537.323,561.708,537.769,563.412,538.492,564.986z"/>
	</g>
	<path fill="#FF80BD" d="M324.168,579.317c0,0-33.314-69.11-50.541-63.026C256.411,522.372,323.875,619.303,324.168,579.317z"/>
	<path fill="#FF80BD" d="M382.981,598.391c0,0,56.468-49.9,46.867-66.072C420.241,516.139,345.807,607.292,382.981,598.391z"/>
	<path fill="#FF80BD" d="M394.565,657.825c0,0,54.086,52.728,68.23,40.766C476.944,686.627,381.632,620.211,394.565,657.825z"/>
	<path fill="#FF80BD" d="M319.226,691.555c0,0-8.244,76.959,9.342,81.766C346.147,778.129,340.366,658.274,319.226,691.555z"/>
	<path fill="#FF80BD" d="M296.774,645.988c0,0-72.615-14.106-78.444,3.945C212.507,667.987,326.917,670.474,296.774,645.988z"/>
	<path fill="#FF5091" d="M397.269,568.857c0,0,28.938-70.209-27.887-106.383s-82.896,53.853-56.219,120.341
		c0,0-53.291-63.5-87.688-36.271c-34.396,27.236-13.853,97.881,44.401,101.139c0,0-88.956,33.747-46.323,101.683
		c42.633,67.931,87.276-5.583,105.214-43.747c0,0,23.689,87.122,77.162,85.9c53.483-1.225,57.991-87.139,9.682-125.234
		c0,0,75.269,7.492,80.73-43.261C501.813,572.259,458.303,530.551,397.269,568.857z"/>
	<path fill="#FF4480" d="M352.189,722.696c8.47-6.563-4.653-42.425-10.415-42.594C336.021,679.935,330.794,739.266,352.189,722.696z
		"/>
	<path fill="#FF4480" d="M261.962,597.899c-0.549,11.296,35.059,23.682,38.921,19.006
		C304.745,612.235,263.335,569.375,261.962,597.899z"/>
	<path fill="#FF4480" d="M417.159,608.807c-6.557-8.642-40.266,6.396-40.215,12.435S433.718,630.635,417.159,608.807z"/>
	<path fill="#FF80BD" d="M367.866,621.621c0,0,2.443-43.838-31.244-45.283c-33.68-1.446-18.048,49.78-18.048,49.78
		s-27.233-4.599-29.386,17.045c-2.146,21.646,29.523,50.243,51.143,29.249c0,0,27.463,24.84,47.189,7.919
		C407.255,663.403,397.995,622.87,367.866,621.621z"/>
	<path fill="#FCDE52" d="M339.424,658.296c11.989,2.04,25.304-27.451,7.539-41.358C329.202,603.026,309.629,653.207,339.424,658.296
		z"/>
	<g>
		<path fill="#FF80BD" d="M827.477,579.317c0,0-33.314-69.11-50.541-63.026C759.718,522.372,827.182,619.303,827.477,579.317z"/>
		<path fill="#FF80BD" d="M886.29,598.391c0,0,56.468-49.9,46.867-66.072C923.548,516.139,849.113,607.292,886.29,598.391z"/>
		<path fill="#FF80BD" d="M897.872,657.825c0,0,54.088,52.728,68.232,40.766C980.251,686.627,884.94,620.211,897.872,657.825z"/>
		<path fill="#FF80BD" d="M822.534,691.555c0,0-8.246,76.959,9.342,81.766C849.454,778.129,843.675,658.274,822.534,691.555z"/>
		<path fill="#FF80BD" d="M800.081,645.988c0,0-72.613-14.106-78.442,3.945C715.813,667.987,830.224,670.474,800.081,645.988z"/>
		<path fill="#FF5091" d="M900.575,568.857c0,0,28.938-70.209-27.887-106.383s-82.895,53.853-56.219,120.341
			c0,0-53.288-63.5-87.688-36.271c-34.396,27.236-13.853,97.881,44.403,101.139c0,0-88.956,33.747-46.323,101.683
			c42.633,67.931,87.276-5.583,105.214-43.747c0,0,23.688,87.122,77.162,85.9c53.481-1.225,57.989-87.139,9.682-125.234
			c0,0,75.267,7.492,80.729-43.261C1005.122,572.259,961.611,530.551,900.575,568.857z"/>
		<path fill="#FF4480" d="M855.496,722.696c8.472-6.563-4.651-42.425-10.415-42.594
			C839.327,679.935,834.103,739.266,855.496,722.696z"/>
		<path fill="#FF4480" d="M765.271,597.899c-0.549,11.296,35.059,23.682,38.919,19.006
			C808.054,612.235,766.644,569.375,765.271,597.899z"/>
		<path fill="#FF4480" d="M920.466,608.807c-6.557-8.642-40.264,6.396-40.215,12.435
			C880.302,627.28,937.024,630.635,920.466,608.807z"/>
		<path fill="#FF80BD" d="M871.175,621.621c0,0,2.443-43.838-31.246-45.283c-33.678-1.446-18.049,49.78-18.049,49.78
			s-27.232-4.599-29.385,17.045c-2.145,21.646,29.525,50.243,51.145,29.249c0,0,27.461,24.84,47.189,7.919
			C910.562,663.403,901.304,622.87,871.175,621.621z"/>
		<path fill="#FCDE52" d="M842.732,658.296c11.987,2.04,25.302-27.451,7.539-41.358
			C832.509,603.026,812.938,653.207,842.732,658.296z"/>
	</g>
	<g>
		<path fill="#EA275B" d="M693.13,501.974c0,0,2.583-96.084-29.682-106.909c-32.26-10.829-63.229,97.434-63.229,97.434
			s-45.166-75.779-74.847-73.073c-29.685,2.705-12.905,115.027-12.905,115.027s-77.43-37.89-92.911-2.707
			c-15.488,35.188,68.392,74.431,68.392,74.431s-85.171,29.773-82.587,74.43c2.58,44.659,108.398,8.123,108.398,8.123
			s-38.715,66.308,2.577,87.959c41.296,21.652,87.752-66.308,87.752-66.308s33.554,73.077,77.43,73.077
			c43.874,0,23.228-102.852,23.228-102.852s65.814,17.594,94.203-10.824c28.389-28.421-56.779-83.905-56.779-83.905
			s68.393-67.661,45.165-100.144C764.106,453.257,693.13,501.974,693.13,501.974z"/>
		<path fill="#FF4480" d="M584.69,576.345c0,0-44.698-71.37-96.24-59.877c-51.543,11.493,30.232,86.773,88.541,86.312
			C635.3,602.322,584.69,576.345,584.69,576.345z"/>
		<path fill="#FF4480" d="M633.552,617.313c0,0,41.288,73.594,93.31,64.785c52.017-8.811-26.112-88.23-84.374-90.789
			C584.225,588.748,633.552,617.313,633.552,617.313z"/>
		<path fill="#FF4480" d="M586.371,621.689c0,0-72.737,38.373-67.77,93.386c4.972,55.01,85.669-21.533,91.927-82.33
			C616.79,571.948,586.371,621.689,586.371,621.689z"/>
		<path fill="#FF4480" d="M629.581,579.064c0,0,70.842-42.092,63.289-96.777c-7.556-54.688-84.549,25.938-87.938,86.988
			C601.54,630.323,629.581,579.064,629.581,579.064z"/>
		<path fill="#FF4480" d="M579.155,601.658c0,0-80.858-10.026-105.629,38.747c-24.766,48.773,82.797,31.553,119.977-15.556
			C630.68,577.739,579.155,601.658,579.155,601.658z"/>
		<path fill="#FF4480" d="M644.562,598.697c0,0,81.23,5.832,103.674-44.167c22.442-49.993-84.18-27.227-119.094,21.749
			C594.226,625.257,644.562,598.697,644.562,598.697z"/>
		<path fill="#FF4480" d="M610.319,626.515c0,0-14.844,83.955,29.939,113.076c44.782,29.118,35.455-84.566-6.928-126.564
			C590.944,571.029,610.319,626.515,610.319,626.515z"/>
		<path fill="#FF4480" d="M609.942,566.6c0,0,10.878-84.617-35.217-111.383c-46.1-26.768-31.433,86.299,12.873,126.049
			C631.912,621.019,609.942,566.6,609.942,566.6z"/>
		<path fill="#FF80BD" d="M633.673,591.174c0,0,7.816-32.101-16.934-38.246c-24.751-6.149-20.19,34.152-20.19,34.152
			s-19.541-7.518-24.1,8.194c-4.559,15.708,14.982,41.662,33.87,29.367c0,0,16.934,22.543,33.867,12.979
			C657.119,628.06,655.816,596.641,633.673,591.174z"/>
		<path fill="#FCDE52" d="M607.583,614.053c8.596,3.317,22.5-16.519,11.252-29.499C607.583,571.579,586.21,605.792,607.583,614.053z
			"/>
	</g>
</g>
</svg>
